<svg width="470" height="240" viewBox="0 0 470 240" fill="none" xmlns="http://www.w3.org/2000/svg">
<path d="M23.2539 238.23C23.2539 238.23 -16.0451 187.291 7.53417 138.818C31.116 90.3441 75.9177 101.846 138.801 52.5513C215.141 -7.2938 268.742 -10.5823 336.876 15.5797C375.396 30.3678 381.678 91.1659 442.989 128.959C498.259 163.029 453.208 220.977 424.13 230.014C395.045 239.052 375.396 239.052 375.396 239.052L23.2539 238.23Z" fill="#3FC099" fill-opacity="0.32"/>
<path d="M257.241 128.716C247.429 149.53 235.133 206.404 231.777 209.52C228.421 212.637 209.042 224.713 205.686 230.556C202.336 236.4 203.825 234.452 205.319 234.841C206.808 235.231 291.033 235.62 291.033 235.62C291.033 235.62 281.343 175.24 280.226 174.851C279.109 174.461 257.241 128.716 257.241 128.716" fill="#3FC099"/>
<path d="M243.29 235.337C258.765 235.45 275.085 235.539 284.071 235.585L271.767 158.677C265.208 145.379 257.243 128.715 257.243 128.715C256.004 131.339 254.73 134.537 253.435 138.127C252.161 195.891 260.12 212.082 254.138 222.375C249.475 230.406 245.217 233.999 243.29 235.337" fill="#068D65"/>
<path d="M418.178 239.474H13.7277C12.0045 239.474 10.6077 238.013 10.6077 236.212C10.6077 234.411 12.0045 232.951 13.7277 232.951H418.178C419.901 232.951 421.299 234.411 421.299 236.212C421.299 238.013 419.901 239.474 418.178 239.474Z" fill="#1F634E"/>
<path d="M308.896 103.593C322.883 117.091 354.029 129.89 354.029 129.89C354.029 129.89 358.755 175.581 355.529 201.452C352.302 227.323 354.095 232.572 354.095 232.572H289.885C289.885 232.572 281.27 220.072 265.496 181.205C255.452 156.459 257.245 128.714 257.245 128.714L296.343 110.342L308.896 103.593" fill="#3FC099"/>
<path d="M289.887 232.572H354.095C354.095 232.572 352.298 227.323 355.528 201.452C358.185 180.15 355.445 145.41 354.398 133.806L348.555 131.19C333.899 135.605 325.45 158.46 322.964 180.796C321.299 195.74 297.615 210.452 282.121 218.551C287.214 228.694 289.887 232.572 289.887 232.572Z" fill="#068D65"/>
<path d="M274.138 56.7C266.402 74.7177 275.691 91.4091 275.407 90.7035C275.127 90.0032 287.122 60.2813 287.122 60.2813L274.138 56.7Z" fill="#1F634E"/>
<path d="M303.47 70.0216L313.286 107.524C313.563 108.582 313.328 109.71 312.668 110.561C310.363 113.526 307.084 119.624 300.473 121.58C299.185 121.96 297.603 122.062 296.32 122.067C294.973 122.072 293.81 121.08 293.554 119.697L286.98 84.1256L303.47 70.0216" fill="#F09959"/>
<path d="M301.599 73.1556L298.008 74.6939L286.98 84.1239L292.898 115.661C302.941 109.117 304.407 104.701 301.599 73.1556" fill="#E38540"/>
<path d="M303.112 86.6124C300.939 98.9476 292.105 107.29 283.385 105.246C274.665 103.202 270.505 95.2172 271.526 79.2058C272.331 66.6483 278.254 52.9956 286.98 55.0397C295.699 57.0838 305.286 74.2718 303.112 86.6124" fill="#F09959"/>
<path d="M354.019 129.893C367.011 132.959 369.425 160.539 373.651 189.627C374.134 192.975 376.633 221.313 376.633 221.313C376.633 221.313 376.88 226.507 371.912 229.103C367.664 231.322 365.948 233 341.348 233.259C317.722 233.508 287.266 232.48 287.266 232.48C287.266 232.48 286.996 223.292 289.415 218.802C293.061 212.049 330.416 202.353 333.893 201.834C334.388 194.562 330.461 168.251 335.879 150.411C339.61 138.139 343.616 131.711 348.635 130.031C350.312 129.471 352.095 129.439 354.019 129.893Z" fill="#3FC099"/>
<path d="M300.627 233.04C312.27 233.223 328.255 233.397 341.349 233.259C365.945 232.999 367.667 231.322 371.907 229.103C376.882 226.507 377.13 222.091 377.13 222.091C377.13 222.091 374.618 191.939 374.149 188.588C371.416 169.11 368.463 146.821 361.586 136.062C368.051 155.855 369.09 172.557 369.203 179.69C369.265 183.302 368.943 188.249 367.938 191.705C366.82 195.535 363.963 197.938 359.485 196.639C350.542 194.042 339.362 199.496 339.362 199.496C339.362 199.496 347.809 196.379 355.759 199.237C363.709 202.093 380.112 221.052 362.218 228.064C356.747 230.21 323.953 231.96 300.627 233.04" fill="#068D65"/>
<path d="M291.41 219.667C291.41 219.667 294.721 213.78 301.509 213.78C308.303 213.78 307.808 225.38 306.814 229.189C305.819 232.999 301.842 233.172 301.842 233.172L287.266 232.479L291.41 219.667Z" fill="#068D65"/>
<path d="M276.632 235.815H184.739C183.351 235.815 182.215 234.63 182.215 233.182V232.425C182.215 230.976 183.351 229.791 184.739 229.791H276.632C278.015 229.791 279.151 230.976 279.151 232.425V233.182C279.151 234.63 278.015 235.815 276.632 235.815Z" fill="#05805B"/>
<path d="M289.583 220.36C275.339 214.993 271.599 217.013 268.384 216.031C260.43 213.608 258.441 215.685 253.308 230.402C252.285 233.335 255.293 233.519 258.275 233.519C261.256 233.519 264.903 227.459 266.061 226.766C267.22 226.073 270.368 225.728 270.368 225.728C270.368 225.728 269.376 225.728 267.885 228.844C266.394 231.96 264.571 233.172 266.893 233.172C269.21 233.172 269.542 229.19 273.848 230.056C278.155 230.922 276.498 233.172 287.261 232.999C298.035 232.826 306.16 232.999 305.983 226.247C305.817 219.841 306.498 216.637 300.679 215.512C296.207 214.646 289.583 220.36 289.583 220.36" fill="#F09959"/>
<path d="M289.775 220.358C299.298 219.233 296.501 231.635 295.507 232.673C294.518 233.712 300.815 233.038 300.815 233.038C300.815 233.038 303.772 228.063 301.286 222.35C298.8 216.636 293.835 216.376 293.835 216.376L289.609 218.8L289.775 220.358" fill="#A86B48"/>
<path d="M299.719 219.28C299.591 220.817 297.096 221.853 294.138 221.595C291.174 221.337 288.876 219.881 288.999 218.344C289.123 216.808 291.617 215.771 294.581 216.029C297.539 216.288 299.838 217.743 299.719 219.28Z" fill="#1F634E"/>
<path d="M298.962 218.515C298.854 219.887 296.619 220.814 293.972 220.583C291.331 220.352 289.276 219.052 289.389 217.678C289.497 216.305 291.732 215.379 294.374 215.61C297.015 215.841 299.07 217.141 298.962 218.515Z" fill="#3FC099"/>
<path d="M297.309 217.879C297.232 218.867 295.623 219.534 293.722 219.368C291.815 219.201 290.341 218.265 290.418 217.277C290.495 216.289 292.103 215.622 294.005 215.788C295.911 215.954 297.386 216.891 297.309 217.879Z" fill="#F0CEB4"/>
<path d="M181.375 216.79H88.8048C83.9322 216.79 79.7608 213.105 78.8798 208.029L66.8062 138.372C65.6689 131.799 70.4292 125.747 76.7312 125.747H169.302C174.174 125.747 178.345 129.431 179.226 134.505L191.3 204.165C192.437 210.735 187.677 216.79 181.375 216.79Z" fill="#05805B"/>
<path d="M185.704 204.425L173.383 136.206C172.482 131.236 168.222 127.627 163.253 127.627H69.1785C67.2024 130.024 66.2121 133.306 66.8143 136.724L79.3135 207.843C80.2235 213.025 84.546 216.789 89.5868 216.789H175.578C182.006 216.789 186.864 210.858 185.704 204.425Z" fill="#6EDAB9"/>
<path d="M163.382 226.116H145.81C142.677 226.116 140.133 223.198 140.133 219.599V186.016C140.133 180.288 136.088 175.644 131.1 175.644H121.924C116.932 175.644 112.891 180.288 112.891 186.016V223.626C112.891 230.058 117.447 235.26 123.05 235.22L171.009 234.876C171.009 230.038 167.593 226.116 163.382 226.116" fill="#05805B"/>
<path d="M113.586 186.767V223.804C113.586 229.833 118.06 234.762 123.715 235.187L170.522 234.881C170.517 234.08 166.828 232.619 162.271 232.619H143.259C139.871 232.619 137.124 229.747 137.124 226.202V186.767C137.124 181.129 132.746 176.558 127.352 176.558H123.362C117.964 176.558 113.586 181.129 113.586 186.767" fill="#6EDAB9"/>
<path d="M211.559 221.85C218.632 217.742 227.278 219.111 230.423 223.219C233.563 227.326 234.091 230.064 227.017 230.064C219.943 230.064 205.796 230.612 203.435 230.339C201.084 230.064 211.559 221.85 211.559 221.85" fill="#F09959"/>
<path d="M222.038 219.385C229.633 217.468 234.83 222.089 241.163 226.504C246.665 230.338 247.772 234.065 241.685 230.886C232.78 226.231 227.54 225.683 227.54 225.683L222.038 219.385Z" fill="#F09959"/>
<path d="M215.12 221.823C211.283 221.823 207.937 220.545 205.227 220.78C202.516 221.016 193.942 230.217 195.296 230.924C195.393 230.976 195.495 231.022 195.611 231.066C197.645 231.848 199.944 230.981 201.093 229.056C202.307 227.02 204.281 224.65 206.58 225.499C210.417 226.914 214.444 226.777 214.444 226.777L215.12 221.823" fill="#F09959"/>
<path d="M212.864 231.708C208.937 230.066 215.228 216.374 217.323 216.374C219.419 216.374 227.278 222.946 227.278 222.946C227.278 222.946 225.432 224.036 219.155 221.85C217.587 221.303 216.278 230.613 214.442 231.708C212.605 232.804 212.864 231.708 212.864 231.708" fill="#F7A96F"/>
<path d="M271.523 86.4163C271.154 101.493 276.069 104.042 279.509 106.09C282.944 108.137 297.752 104.755 299.928 101.026C305.491 91.4877 300.808 82.5894 302.051 82.7271C303.299 82.8592 304.437 86.576 307.677 91.3941C307.977 91.8401 310.085 94.8207 310.195 93.8301C311.702 80.3263 318.429 76.136 316.828 62.4802C315.648 52.4146 309.531 53.213 309.531 53.213C309.531 53.213 305.591 44.7884 293.311 45.7465C285.088 46.3852 277.755 49.7385 269.274 52.0182C260.792 54.2978 279.304 74.3849 290.303 67.0505C301.303 59.7105 295.872 75.8772 297.605 77.1271C299.343 78.3826 298.442 77.2978 299.238 85.5684C300.033 93.8406 289.982 99.2423 287.1 99.9504C277.892 102.215 276.349 100.626 274.336 97.0006C272.582 93.8548 271.523 86.4163 271.523 86.4163" fill="#1F634E"/>
<path d="M309.651 81.7497C308.591 85.5477 306.007 88.0033 303.882 87.2284C301.752 86.459 301.689 83.3704 301.94 78.9504C302.164 74.9724 305.579 72.6969 307.709 73.4718C309.834 74.2412 310.705 77.9463 309.651 81.7497Z" fill="#F09959"/>
<path d="M108.368 71.5483H29.7376C28.8801 71.5483 28.186 70.8228 28.186 69.9264V34.5585C28.186 33.6622 28.8801 32.9367 29.7376 32.9367H108.368C109.226 32.9367 109.92 33.6622 109.92 34.5585V69.9264C109.92 70.8228 109.226 71.5483 108.368 71.5483Z" fill="#34A482"/>
<path d="M106.435 69.7324H31.6717C30.984 69.7324 30.4196 69.1466 30.4196 68.4236V44.3872C30.4196 43.6643 30.984 43.0784 31.6717 43.0784H106.435C107.126 43.0784 107.687 43.6643 107.687 44.3872V68.4236C107.687 69.1466 107.126 69.7324 106.435 69.7324Z" fill="white"/>
<path d="M34.0615 38.7936H32.2486C31.864 38.7936 31.5505 38.4697 31.5505 38.0676V36.5078C31.5505 36.1057 31.864 35.7818 32.2486 35.7818H34.0615C34.4426 35.7818 34.7561 36.1057 34.7561 36.5078V38.0676C34.7561 38.4697 34.4426 38.7936 34.0615 38.7936Z" fill="white"/>
<path d="M39.8811 38.7912H38.0674C37.6897 38.7912 37.3761 38.4672 37.3761 38.0686V36.5043C37.3761 36.1058 37.6897 35.7817 38.0674 35.7817H39.8811C40.266 35.7817 40.5795 36.1058 40.5795 36.5043V38.0686C40.5795 38.4672 40.266 38.7912 39.8811 38.7912Z" fill="white"/>
<path d="M45.7017 38.7935H43.8878C43.5063 38.7935 43.1968 38.4699 43.1968 38.0712V36.5062C43.1968 36.1074 43.5063 35.7839 43.8878 35.7839H45.7017C46.0868 35.7839 46.3999 36.1074 46.3999 36.5062V38.0712C46.3999 38.4699 46.0868 38.7935 45.7017 38.7935Z" fill="white"/>
<path d="M104.541 48.924H63.6679C62.9981 48.924 62.4471 48.3523 62.4471 47.648C62.4471 46.9438 62.9981 46.368 63.6679 46.368H104.541C105.215 46.368 105.762 46.9438 105.762 47.648C105.762 48.3523 105.215 48.924 104.541 48.924Z" fill="#34A482"/>
<path d="M73.8018 68.6365H32.9372C32.2616 68.6365 31.7104 68.0644 31.7104 67.3621C31.7104 66.6559 32.2616 66.0838 32.9372 66.0838H73.8018C74.4775 66.0838 75.0248 66.6559 75.0248 67.3621C75.0248 68.0644 74.4775 68.6365 73.8018 68.6365Z" fill="#34A482"/>
<path d="M81.3289 68.6416H77.101C76.8682 68.6416 76.6851 68.4462 76.6851 68.2069V66.5237C76.6851 66.2844 76.8682 66.085 77.101 66.085H81.3289C81.5578 66.085 81.7448 66.2844 81.7448 66.5237V68.2069C81.7448 68.4462 81.5578 68.6416 81.3289 68.6416Z" fill="#34A482"/>
<path d="M87.7045 68.6416H83.4757C83.2482 68.6416 83.0593 68.4442 83.0593 68.2024V66.5221C83.0593 66.2803 83.2482 66.0829 83.4757 66.0829H87.7045C87.9358 66.0829 88.1247 66.2803 88.1247 66.5221V68.2024C88.1247 68.4442 87.9358 68.6416 87.7045 68.6416Z" fill="#34A482"/>
<path d="M104.929 54.4917H37.2529C36.8011 54.4917 36.4246 54.1023 36.4246 53.6259C36.4246 53.1495 36.8011 52.7601 37.2529 52.7601H104.929C105.389 52.7601 105.762 53.1495 105.762 53.6259C105.762 54.1023 105.389 54.4917 104.929 54.4917Z" fill="#34A482"/>
<path d="M104.929 58.2367H37.2529C36.8011 58.2367 36.4246 57.8473 36.4246 57.3709C36.4246 56.8903 36.8011 56.5009 37.2529 56.5009H104.929C105.389 56.5009 105.762 56.8903 105.762 57.3709C105.762 57.8473 105.389 58.2367 104.929 58.2367Z" fill="#34A482"/>
<path d="M126.84 98.6571H48.2031C47.3499 98.6571 46.6566 97.9282 46.6566 97.0363V61.667C46.6566 60.7709 47.3499 60.0463 48.2031 60.0463H126.84C127.693 60.0463 128.391 60.7709 128.391 61.667V97.0363C128.391 97.9282 127.693 98.6571 126.84 98.6571Z" fill="#1DAD82"/>
<path d="M124.907 96.8409H50.1424C49.4515 96.8409 48.8914 96.2555 48.8914 95.5333V71.4955C48.8914 70.7733 49.4515 70.1878 50.1424 70.1878H124.907C125.598 70.1878 126.158 70.7733 126.158 71.4955V95.5333C126.158 96.2555 125.598 96.8409 124.907 96.8409Z" fill="white"/>
<path d="M52.5324 65.8991H50.7156C50.3333 65.8991 50.0238 65.5757 50.0238 65.1761V63.6119C50.0238 63.2123 50.3333 62.8889 50.7156 62.8889H52.5324C52.9147 62.8889 53.2242 63.2123 53.2242 63.6119V65.1761C53.2242 65.5757 52.9147 65.8991 52.5324 65.8991Z" fill="white"/>
<path d="M58.3499 65.9041H56.5374C56.155 65.9041 55.8425 65.5774 55.8425 65.1778V63.6136C55.8425 63.214 56.155 62.8912 56.5374 62.8912H58.3499C58.7359 62.8912 59.0447 63.214 59.0447 63.6136V65.1778C59.0447 65.5774 58.7359 65.9041 58.3499 65.9041Z" fill="white"/>
<path d="M64.1763 65.8972H62.3646C61.9785 65.8972 61.6704 65.5751 61.6704 65.1754V63.6116C61.6704 63.212 61.9785 62.886 62.3646 62.886H64.1763C64.5624 62.886 64.8705 63.212 64.8705 63.6116V65.1754C64.8705 65.5751 64.5624 65.8972 64.1763 65.8972Z" fill="white"/>
<path d="M123.005 76.0347H82.1417C81.465 76.0347 80.9187 75.4595 80.9187 74.7564C80.9187 74.0533 81.465 73.4781 82.1417 73.4781H123.005C123.682 73.4781 124.232 74.0533 124.232 74.7564C124.232 75.4595 123.682 76.0347 123.005 76.0347Z" fill="#1DAD82"/>
<path d="M92.2746 95.7479H51.404C50.7313 95.7479 50.1831 95.1708 50.1831 94.4678C50.1831 93.7647 50.7313 93.1917 51.404 93.1917H92.2746C92.9472 93.1917 93.4955 93.7647 93.4955 94.4678C93.4955 95.1708 92.9472 95.7479 92.2746 95.7479Z" fill="#1DAD82"/>
<path d="M99.7991 95.7482H95.5672C95.3393 95.7482 95.1506 95.5552 95.1506 95.3128V93.629C95.1506 93.3908 95.3393 93.1936 95.5672 93.1936H99.7991C100.027 93.1936 100.216 93.3908 100.216 93.629V95.3128C100.216 95.5552 100.027 95.7482 99.7991 95.7482Z" fill="#1DAD82"/>
<path d="M106.173 95.7476H101.947C101.713 95.7476 101.526 95.5527 101.526 95.3121V93.6322C101.526 93.3916 101.713 93.1925 101.947 93.1925H106.173C106.404 93.1925 106.59 93.3916 106.59 93.6322V95.3121C106.59 95.5527 106.404 95.7476 106.173 95.7476Z" fill="#1DAD82"/>
<path d="M123.401 81.5996H55.7256C55.2649 81.5996 54.8939 81.2119 54.8939 80.7347C54.8939 80.2574 55.2649 79.8654 55.7256 79.8654H123.401C123.857 79.8654 124.233 80.2574 124.233 80.7347C124.233 81.2119 123.857 81.5996 123.401 81.5996Z" fill="#1DAD82"/>
<path d="M123.401 85.3451H55.7256C55.2649 85.3451 54.8939 84.953 54.8939 84.4758C54.8939 83.9986 55.2649 83.6108 55.7256 83.6108H123.401C123.857 83.6108 124.233 83.9986 124.233 84.4758C124.233 84.953 123.857 85.3451 123.401 85.3451Z" fill="#1DAD82"/>
<path d="M157.465 89.2103C157.465 95.3354 152.714 100.302 146.854 100.302C140.994 100.302 136.247 95.3354 136.247 89.2103C136.247 83.0851 140.994 78.1233 146.854 78.1233C152.714 78.1233 157.465 83.0851 157.465 89.2103Z" fill="#0C7C5B"/>
<path d="M145.806 93.305H145.776C145.555 93.2961 145.347 93.1939 145.198 93.0206L142.319 89.5982C142.021 89.2471 142.055 88.7137 142.391 88.4026C142.723 88.096 143.238 88.1315 143.531 88.4826L145.848 91.2338L151.397 85.5581C151.716 85.2336 152.227 85.2381 152.537 85.5714C152.852 85.9048 152.843 86.4381 152.529 86.767L146.371 93.065C146.218 93.2206 146.018 93.305 145.806 93.305" fill="white"/>
<path d="M225.447 37.6953H157.988C156.256 37.6953 154.841 36.2162 154.841 34.4068V9.21332C154.841 7.40885 156.256 5.9298 157.988 5.9298H225.447C227.174 5.9298 228.589 7.40885 228.589 9.21332V34.4068C228.589 36.2162 227.174 37.6953 225.447 37.6953Z" fill="#1DAD82"/>
<path d="M163.746 32.9061V50.4297L183.068 30.2344C183.068 30.2344 164.141 32.9061 163.746 32.9061Z" fill="#1DAD82"/>
<path d="M222.11 34.5432H161.321C159.857 34.5432 158.655 33.2922 158.655 31.7567V11.8637C158.655 10.3331 159.857 9.07723 161.321 9.07723H222.11C223.579 9.07723 224.776 10.3331 224.776 11.8637V31.7567C224.776 33.2922 223.579 34.5432 222.11 34.5432Z" fill="white"/>
<path d="M194.666 15.3738H164.801C164.078 15.3738 163.487 14.7601 163.487 14.0047C163.487 13.2541 164.078 12.6356 164.801 12.6356H194.666C195.388 12.6356 195.976 13.2541 195.976 14.0047C195.976 14.7601 195.388 15.3738 194.666 15.3738Z" fill="#1DAD82"/>
<path d="M219.61 20.6097H164.218C163.817 20.6097 163.49 20.2682 163.49 19.8488V19.8342C163.49 19.4147 163.817 19.0733 164.218 19.0733H219.61C220.012 19.0733 220.338 19.4147 220.338 19.8342V19.8488C220.338 20.2682 220.012 20.6097 219.61 20.6097Z" fill="#1DAD82"/>
<path d="M219.61 23.5897H164.218C163.817 23.5897 163.49 23.2483 163.49 22.8289V22.8142C163.49 22.3948 163.817 22.0534 164.218 22.0534H219.61C220.012 22.0534 220.338 22.3948 220.338 22.8142V22.8289C220.338 23.2483 220.012 23.5897 219.61 23.5897Z" fill="#1DAD82"/>
<path d="M208.157 33.4527H206.341C205.96 33.4527 205.652 33.126 205.652 32.7273V31.1661C205.652 30.7626 205.96 30.4408 206.341 30.4408H208.157C208.543 30.4408 208.85 30.7626 208.85 31.1661V32.7273C208.85 33.126 208.543 33.4527 208.157 33.4527Z" fill="#1DAD82"/>
<path d="M213.982 33.4497H212.171C211.787 33.4497 211.476 33.1254 211.476 32.7236V31.1599C211.476 30.763 211.787 30.4386 212.171 30.4386H213.982C214.366 30.4386 214.677 30.763 214.677 31.1599V32.7236C214.677 33.1254 214.366 33.4497 213.982 33.4497Z" fill="#1DAD82"/>
<path d="M219.802 33.451H217.991C217.608 33.451 217.295 33.1242 217.295 32.7241V31.1631C217.295 30.763 217.608 30.4362 217.991 30.4362H219.802C220.189 30.4362 220.497 30.763 220.497 31.1631V32.7241C220.497 33.1242 220.189 33.451 219.802 33.451Z" fill="#1DAD82"/>
</svg>
